<?xml version="1.0" encoding="UTF-8" standalone="no"?>
<svg
   xmlns:dc="http://purl.org/dc/elements/1.1/"
   xmlns:cc="http://creativecommons.org/ns#"
   xmlns:rdf="http://www.w3.org/1999/02/22-rdf-syntax-ns#"
   xmlns:svg="http://www.w3.org/2000/svg"
   xmlns="http://www.w3.org/2000/svg"
   xmlns:sodipodi="http://sodipodi.sourceforge.net/DTD/sodipodi-0.dtd"
   xmlns:inkscape="http://www.inkscape.org/namespaces/inkscape"
   version="1.1"
   id="Layer_1"
   x="0px"
   y="0px"
   width="450"
   height="690"
   viewBox="0 0 450 690"
   enable-background="new 0 0 300 460"
   xml:space="preserve"
   inkscape:version="0.91 r13725"
   sodipodi:docname="morpher_player.svg"><metadata
     id="metadata3350"><rdf:RDF><cc:Work
         rdf:about=""><dc:format>image/svg+xml</dc:format><dc:type
           rdf:resource="http://purl.org/dc/dcmitype/StillImage" /><dc:title></dc:title></cc:Work></rdf:RDF></metadata><defs
     id="defs3348" /><sodipodi:namedview
     pagecolor="#ffffff"
     bordercolor="#666666"
     borderopacity="1"
     objecttolerance="10"
     gridtolerance="10"
     guidetolerance="10"
     inkscape:pageopacity="0"
     inkscape:pageshadow="2"
     inkscape:window-width="1258"
     inkscape:window-height="820"
     id="namedview3346"
     showgrid="false"
     showborder="false"
     inkscape:zoom="1.223913"
     inkscape:cx="-197.12256"
     inkscape:cy="573.50016"
     inkscape:window-x="506"
     inkscape:window-y="64"
     inkscape:window-maximized="0"
     inkscape:current-layer="Layer_1" /><path
     id="svg_2"
     d="m 70.48091,47.220249 c 0,0.195 -0.002,570.390001 -0.005,570.585001 -0.003,0.201 0.009,36.7185 0.005,36.9135 0,4.6425 -3.843,7.5015 -7.5,7.5015 l -40.6875,0 -324.375,0 -39.9375,0 c -2.8125,0 -7.5,-1.875 -7.5,-7.5015 -0.005,-0.195 0.006,-36.7635 0.005,-36.9615 -0.003,-0.1785 -0.005,-570.358501 -0.005,-570.537001 l 0,0 c 0,-0.2115 -0.003,-37.2885002 0,-37.5000002 0,0 0,-7.5 7.5,-7.5 l 39.9375,0 324.375,0 40.6875,0 c 3.657,0 7.5,2.859 7.5,7.5 0.003,0.195 0,37.3035002 0,37.5000002 l 0,0 z"
     inkscape:connector-curvature="0"
     style="fill:#00a651" /></svg>